<svg id="container" width="787.828125" xmlns="http://www.w3.org/2000/svg" class="flowchart" height="680.7437744140625" viewBox="0 0 787.828125 680.7437744140625" role="graphics-document document" aria-roledescription="flowchart-v2"><style>#container{font-size:16px;fill:#333;}@keyframes edge-animation-frame{from{stroke-dashoffset:0;}}@keyframes dash{to{stroke-dashoffset:0;}}#container .edge-animation-slow{stroke-dasharray:9,5!important;stroke-dashoffset:900;animation:dash 50s linear infinite;stroke-linecap:round;}#container .edge-animation-fast{stroke-dasharray:9,5!important;stroke-dashoffset:900;animation:dash 20s linear infinite;stroke-linecap:round;}#container .error-icon{fill:hsl(220.5882352941, 100%, 98.3333333333%);}#container .error-text{fill:rgb(8.5000000002, 5.7500000001, 0);stroke:rgb(8.5000000002, 5.7500000001, 0);}#container .edge-thickness-normal{stroke-width:1px;}#container .edge-thickness-thick{stroke-width:3.5px;}#container .edge-pattern-solid{stroke-dasharray:0;}#container .edge-thickness-invisible{stroke-width:0;fill:none;}#container .edge-pattern-dashed{stroke-dasharray:3;}#container .edge-pattern-dotted{stroke-dasharray:2;}#container .marker{fill:#94a3b8;stroke:#94a3b8;}#container .marker.cross{stroke:#94a3b8;}#container svg{font-size:16px;}#container p{margin:0;}#container .label{color:#333;}#container .cluster-label text{fill:rgb(8.5000000002, 5.7500000001, 0);}#container .cluster-label span{color:rgb(8.5000000002, 5.7500000001, 0);}#container .cluster-label span p{background-color:transparent;}#container .label text,#container span{fill:#333;color:#333;}#container .node rect,#container .node circle,#container .node ellipse,#container .node polygon,#container .node path{fill:#fff4dd;stroke:hsl(40.5882352941, 60%, 83.3333333333%);stroke-width:1px;}#container .rough-node .label text,#container .node .label text,#container .image-shape .label,#container .icon-shape .label{text-anchor:middle;}#container .node .katex path{fill:#000;stroke:#000;stroke-width:1px;}#container .rough-node .label,#container .node .label,#container .image-shape .label,#container .icon-shape .label{text-align:center;}#container .node.clickable{cursor:pointer;}#container .root .anchor path{fill:#94a3b8!important;stroke-width:0;stroke:#94a3b8;}#container .arrowheadPath{fill:#f0e8d5;}#container .edgePath .path{stroke:#94a3b8;stroke-width:1px;}#container .flowchart-link{stroke:#94a3b8;fill:none;}#container .edgeLabel{background-color:hsl(-79.4117647059, 100%, 93.3333333333%);text-align:center;}#container .edgeLabel p{background-color:hsl(-79.4117647059, 100%, 93.3333333333%);}#container .edgeLabel rect{opacity:0.5;background-color:hsl(-79.4117647059, 100%, 93.3333333333%);fill:hsl(-79.4117647059, 100%, 93.3333333333%);}#container .labelBkg{background-color:rgba(243.9999999999, 220.9999999998, 255, 0.5);}#container .cluster rect{fill:#1e293b;stroke:#334155;stroke-width:1px;}#container .cluster text{fill:rgb(8.5000000002, 5.7500000001, 0);}#container .cluster span{color:rgb(8.5000000002, 5.7500000001, 0);}#container div.mermaidTooltip{position:absolute;text-align:center;max-width:200px;padding:2px;font-size:12px;background:hsl(220.5882352941, 100%, 98.3333333333%);border:1px solid hsl(220.5882352941, 60%, 88.3333333333%);border-radius:2px;pointer-events:none;z-index:100;}#container .flowchartTitleText{text-anchor:middle;font-size:18px;fill:#333;}#container rect.text{fill:none;stroke-width:0;}#container .icon-shape,#container .image-shape{background-color:hsl(-79.4117647059, 100%, 93.3333333333%);text-align:center;}#container .icon-shape p,#container .image-shape p{background-color:hsl(-79.4117647059, 100%, 93.3333333333%);padding:2px;}#container .icon-shape .label rect,#container .image-shape .label rect{opacity:0.5;background-color:hsl(-79.4117647059, 100%, 93.3333333333%);fill:hsl(-79.4117647059, 100%, 93.3333333333%);}#container .label-icon{display:inline-block;height:1em;overflow:visible;vertical-align:-0.125em;}#container .node .label-icon path{fill:currentColor;stroke:revert;stroke-width:revert;}#container .node .neo-node{stroke:hsl(40.5882352941, 60%, 83.3333333333%);}#container [data-look="neo"].node rect,#container [data-look="neo"].cluster rect,#container [data-look="neo"].node polygon{stroke:url(#container-gradient);filter:drop-shadow( 1px 2px 2px rgba(185,185,185,1));}#container [data-look="neo"].node path{stroke:url(#container-gradient);stroke-width:1px;}#container [data-look="neo"].node .outer-path{filter:drop-shadow( 1px 2px 2px rgba(185,185,185,1));}#container [data-look="neo"].node .neo-line path{stroke:hsl(40.5882352941, 60%, 83.3333333333%);filter:none;}#container [data-look="neo"].node circle{stroke:url(#container-gradient);filter:drop-shadow( 1px 2px 2px rgba(185,185,185,1));}#container [data-look="neo"].node circle .state-start{fill:#000000;}#container [data-look="neo"].icon-shape .icon{fill:url(#container-gradient);filter:drop-shadow( 1px 2px 2px rgba(185,185,185,1));}#container [data-look="neo"].icon-shape .icon-neo path{stroke:url(#container-gradient);filter:drop-shadow( 1px 2px 2px rgba(185,185,185,1));}#container :root{--mermaid-font-family:"trebuchet ms",verdana,arial,sans-serif;}#container .client&gt;*{fill:rgb(22, 78, 99)!important;stroke:rgb(34, 211, 238)!important;color:rgb(207, 250, 254)!important;stroke-width:1.5px!important;}#container .client span{fill:rgb(22, 78, 99)!important;stroke:rgb(34, 211, 238)!important;color:rgb(207, 250, 254)!important;stroke-width:1.5px!important;}#container .client tspan{fill:rgb(207, 250, 254)!important;}#container .edge&gt;*{fill:rgb(19, 78, 74)!important;stroke:rgb(45, 212, 191)!important;color:rgb(204, 251, 241)!important;stroke-width:1.5px!important;}#container .edge span{fill:rgb(19, 78, 74)!important;stroke:rgb(45, 212, 191)!important;color:rgb(204, 251, 241)!important;stroke-width:1.5px!important;}#container .edge tspan{fill:rgb(204, 251, 241)!important;}#container .app&gt;*{fill:rgb(6, 95, 70)!important;stroke:rgb(52, 211, 153)!important;color:rgb(209, 250, 229)!important;stroke-width:1.5px!important;}#container .app span{fill:rgb(6, 95, 70)!important;stroke:rgb(52, 211, 153)!important;color:rgb(209, 250, 229)!important;stroke-width:1.5px!important;}#container .app tspan{fill:rgb(209, 250, 229)!important;}#container .data&gt;*{fill:rgb(120, 53, 15)!important;stroke:rgb(251, 191, 36)!important;color:rgb(254, 243, 199)!important;stroke-width:1.5px!important;}#container .data span{fill:rgb(120, 53, 15)!important;stroke:rgb(251, 191, 36)!important;color:rgb(254, 243, 199)!important;stroke-width:1.5px!important;}#container .data tspan{fill:rgb(254, 243, 199)!important;}#container .queue&gt;*{fill:rgb(136, 19, 55)!important;stroke:rgb(251, 113, 133)!important;color:rgb(255, 228, 230)!important;stroke-width:1.5px!important;}#container .queue span{fill:rgb(136, 19, 55)!important;stroke:rgb(251, 113, 133)!important;color:rgb(255, 228, 230)!important;stroke-width:1.5px!important;}#container .queue tspan{fill:rgb(255, 228, 230)!important;}#container .ext&gt;*{fill:rgb(30, 41, 59)!important;stroke:rgb(148, 163, 184)!important;color:rgb(226, 232, 240)!important;stroke-width:1.5px!important;}#container .ext span{fill:rgb(30, 41, 59)!important;stroke:rgb(148, 163, 184)!important;color:rgb(226, 232, 240)!important;stroke-width:1.5px!important;}#container .ext tspan{fill:rgb(226, 232, 240)!important;}#container .step&gt;*{fill:rgb(19, 78, 74)!important;stroke:rgb(45, 212, 191)!important;color:rgb(204, 251, 241)!important;stroke-width:1.5px!important;}#container .step span{fill:rgb(19, 78, 74)!important;stroke:rgb(45, 212, 191)!important;color:rgb(204, 251, 241)!important;stroke-width:1.5px!important;}#container .step tspan{fill:rgb(204, 251, 241)!important;}</style><g><marker id="container_flowchart-v2-pointEnd" class="marker flowchart-v2" viewBox="0 0 10 10" refX="5" refY="5" markerUnits="userSpaceOnUse" markerWidth="8" markerHeight="8" orient="auto"><path d="M 0 0 L 10 5 L 0 10 z" class="arrowMarkerPath" style="stroke-width: 1; stroke-dasharray: 1, 0;"></path></marker><marker id="container_flowchart-v2-pointStart" class="marker flowchart-v2" viewBox="0 0 10 10" refX="4.5" refY="5" markerUnits="userSpaceOnUse" markerWidth="8" markerHeight="8" orient="auto"><path d="M 0 5 L 10 10 L 10 0 z" class="arrowMarkerPath" style="stroke-width: 1; stroke-dasharray: 1, 0;"></path></marker><marker id="container_flowchart-v2-pointEnd-margin" class="marker flowchart-v2" viewBox="0 0 11.5 14" refX="11.5" refY="7" markerUnits="userSpaceOnUse" markerWidth="10.5" markerHeight="14" orient="auto"><path d="M 0 0 L 11.5 7 L 0 14 z" class="arrowMarkerPath" style="stroke-width: 0; stroke-dasharray: 1, 0;"></path></marker><marker id="container_flowchart-v2-pointStart-margin" class="marker flowchart-v2" viewBox="0 0 11.5 14" refX="1" refY="7" markerUnits="userSpaceOnUse" markerWidth="11.5" markerHeight="14" orient="auto"><polygon points="0,7 11.5,14 11.5,0" class="arrowMarkerPath" style="stroke-width: 0; stroke-dasharray: 1, 0;"></polygon></marker><marker id="container_flowchart-v2-circleEnd" class="marker flowchart-v2" viewBox="0 0 10 10" refX="11" refY="5" markerUnits="userSpaceOnUse" markerWidth="11" markerHeight="11" orient="auto"><circle cx="5" cy="5" r="5" class="arrowMarkerPath" style="stroke-width: 1; stroke-dasharray: 1, 0;"></circle></marker><marker id="container_flowchart-v2-circleStart" class="marker flowchart-v2" viewBox="0 0 10 10" refX="-1" refY="5" markerUnits="userSpaceOnUse" markerWidth="11" markerHeight="11" orient="auto"><circle cx="5" cy="5" r="5" class="arrowMarkerPath" style="stroke-width: 1; stroke-dasharray: 1, 0;"></circle></marker><marker id="container_flowchart-v2-circleEnd-margin" class="marker flowchart-v2" viewBox="0 0 10 10" refY="5" refX="12.25" markerUnits="userSpaceOnUse" markerWidth="14" markerHeight="14" orient="auto"><circle cx="5" cy="5" r="5" class="arrowMarkerPath" style="stroke-width: 0; stroke-dasharray: 1, 0;"></circle></marker><marker id="container_flowchart-v2-circleStart-margin" class="marker flowchart-v2" viewBox="0 0 10 10" refX="-2" refY="5" markerUnits="userSpaceOnUse" markerWidth="14" markerHeight="14" orient="auto"><circle cx="5" cy="5" r="5" class="arrowMarkerPath" style="stroke-width: 0; stroke-dasharray: 1, 0;"></circle></marker><marker id="container_flowchart-v2-crossEnd" class="marker cross flowchart-v2" viewBox="0 0 11 11" refX="12" refY="5.2" markerUnits="userSpaceOnUse" markerWidth="11" markerHeight="11" orient="auto"><path d="M 1,1 l 9,9 M 10,1 l -9,9" class="arrowMarkerPath" style="stroke-width: 2; stroke-dasharray: 1, 0;"></path></marker><marker id="container_flowchart-v2-crossStart" class="marker cross flowchart-v2" viewBox="0 0 11 11" refX="-1" refY="5.2" markerUnits="userSpaceOnUse" markerWidth="11" markerHeight="11" orient="auto"><path d="M 1,1 l 9,9 M 10,1 l -9,9" class="arrowMarkerPath" style="stroke-width: 2; stroke-dasharray: 1, 0;"></path></marker><marker id="container_flowchart-v2-crossEnd-margin" class="marker cross flowchart-v2" viewBox="0 0 15 15" refX="17.7" refY="7.5" markerUnits="userSpaceOnUse" markerWidth="12" markerHeight="12" orient="auto"><path d="M 1,1 L 14,14 M 1,14 L 14,1" class="arrowMarkerPath" style="stroke-width: 2.5;"></path></marker><marker id="container_flowchart-v2-crossStart-margin" class="marker cross flowchart-v2" viewBox="0 0 15 15" refX="-3.5" refY="7.5" markerUnits="userSpaceOnUse" markerWidth="12" markerHeight="12" orient="auto"><path d="M 1,1 L 14,14 M 1,14 L 14,1" class="arrowMarkerPath" style="stroke-width: 2.5; stroke-dasharray: 1, 0;"></path></marker><g class="root"><g class="clusters"><g class="cluster" id="container-az2" data-look="classic"><rect style="" x="110.984375" y="305" width="231.046875" height="104"></rect><g class="cluster-label" transform="translate(159.6328125, 305)"><foreignObject width="133.75" height="24"><div xmlns="http://www.w3.org/1999/xhtml" style="display: table-cell; white-space: nowrap; line-height: 1.5;"><span class="nodeLabel"><p>Availability Zone B</p></span></div></foreignObject></g></g><g class="cluster" id="container-az1" data-look="classic"><rect style="" x="362.03125" y="305" width="362.109375" height="104"></rect><g class="cluster-label" transform="translate(476.4921875, 305)"><foreignObject width="133.1875" height="24"><div xmlns="http://www.w3.org/1999/xhtml" style="display: table-cell; white-space: nowrap; line-height: 1.5;"><span class="nodeLabel"><p>Availability Zone A</p></span></div></foreignObject></g></g></g><g class="edgePaths"><path d="M239.125,47.5L239.042,51.583C238.958,55.667,238.792,63.833,238.708,71.417C238.625,79,238.625,86,238.625,89.5L238.625,93" id="container-L_u_dns_0" class="edge-thickness-normal edge-pattern-solid edge-thickness-normal edge-pattern-solid flowchart-link" style=";" data-edge="true" data-et="edge" data-id="L_u_dns_0" data-points="W3sieCI6MjM5LjEyNSwieSI6NDcuNX0seyJ4IjoyMzguNjI1LCJ5Ijo3Mn0seyJ4IjoyMzguNjI1LCJ5Ijo5N31d" data-look="classic" marker-end="url(#container_flowchart-v2-pointEnd)"></path><path d="M169.356,151L158.667,155.167C147.977,159.333,126.598,167.667,115.908,175.333C105.219,183,105.219,190,105.219,193.5L105.219,197" id="container-L_dns_cdn_0" class="edge-thickness-normal edge-pattern-solid edge-thickness-normal edge-pattern-solid flowchart-link" style=";" data-edge="true" data-et="edge" data-id="L_dns_cdn_0" data-points="W3sieCI6MTY5LjM1NjM3MDE5MjMwNzY4LCJ5IjoxNTF9LHsieCI6MTA1LjIxODc1LCJ5IjoxNzZ9LHsieCI6MTA1LjIxODc1LCJ5IjoyMDF9XQ==" data-look="classic" marker-end="url(#container_flowchart-v2-pointEnd)"></path><path d="M307.894,151L318.583,155.167C329.273,159.333,350.652,167.667,361.342,175.333C372.031,183,372.031,190,372.031,193.5L372.031,197" id="container-L_dns_lb_0" class="edge-thickness-normal edge-pattern-solid edge-thickness-normal edge-pattern-solid flowchart-link" style=";" data-edge="true" data-et="edge" data-id="L_dns_lb_0" data-points="W3sieCI6MzA3Ljg5MzYyOTgwNzY5MjMsInkiOjE1MX0seyJ4IjozNzIuMDMxMjUsInkiOjE3Nn0seyJ4IjozNzIuMDMxMjUsInkiOjIwMX1d" data-look="classic" marker-end="url(#container_flowchart-v2-pointEnd)"></path><path d="M463.444,255L477.551,259.167C491.658,263.333,519.872,271.667,533.979,280C548.086,288.333,548.086,296.667,548.086,304.333C548.086,312,548.086,319,548.086,322.5L548.086,326" id="container-L_lb_app1_0" class="edge-thickness-normal edge-pattern-solid edge-thickness-normal edge-pattern-solid flowchart-link" style=";" data-edge="true" data-et="edge" data-id="L_lb_app1_0" data-points="W3sieCI6NDYzLjQ0NDI2MDgxNzMwNzcsInkiOjI1NX0seyJ4Ijo1NDguMDg1OTM3NSwieSI6MjgwfSx7IngiOjU0OC4wODU5Mzc1LCJ5IjozMDV9LHsieCI6NTQ4LjA4NTkzNzUsInkiOjMzMH1d" data-look="classic" marker-end="url(#container_flowchart-v2-pointEnd)"></path><path d="M296.471,255L284.81,259.167C273.15,263.333,249.829,271.667,238.168,280C226.508,288.333,226.508,296.667,226.508,304.333C226.508,312,226.508,319,226.508,322.5L226.508,326" id="container-L_lb_app2_0" class="edge-thickness-normal edge-pattern-solid edge-thickness-normal edge-pattern-solid flowchart-link" style=";" data-edge="true" data-et="edge" data-id="L_lb_app2_0" data-points="W3sieCI6Mjk2LjQ3MTAwMzYwNTc2OTIsInkiOjI1NX0seyJ4IjoyMjYuNTA3ODEyNSwieSI6MjgwfSx7IngiOjIyNi41MDc4MTI1LCJ5IjozMDV9LHsieCI6MjI2LjUwNzgxMjUsInkiOjMzMH1d" data-look="classic" marker-end="url(#container_flowchart-v2-pointEnd)"></path><path d="M491.857,384L483.18,388.167C474.502,392.333,457.148,400.667,435.51,409C413.872,417.333,387.952,425.667,369.391,434.18C350.831,442.694,339.63,451.388,334.03,455.736L328.43,460.083" id="container-L_app1_cache_0" class="edge-thickness-normal edge-pattern-solid edge-thickness-normal edge-pattern-solid flowchart-link" style=";" data-edge="true" data-et="edge" data-id="L_app1_cache_0" data-points="W3sieCI6NDkxLjg1Njg5NjAzMzY1Mzg3LCJ5IjozODR9LHsieCI6NDM5Ljc5Mjk2ODc1LCJ5Ijo0MDl9LHsieCI6MzYyLjAzMTI1LCJ5Ijo0MzR9LHsieCI6MzI1LjI3MDE1ODc3MDcxNzA1LCJ5Ijo0NjIuNTM1NDgwNzE3OTMwNzR9XQ==" data-look="classic" marker-end="url(#container_flowchart-v2-pointEnd)"></path><path d="M206.901,384L203.875,388.167C200.849,392.333,194.798,400.667,191.772,409C188.746,417.333,188.746,425.667,192.868,433.848C196.991,442.029,205.235,450.058,209.357,454.072L213.48,458.086" id="container-L_app2_cache_0" class="edge-thickness-normal edge-pattern-solid edge-thickness-normal edge-pattern-solid flowchart-link" style=";" data-edge="true" data-et="edge" data-id="L_app2_cache_0" data-points="W3sieCI6MjA2LjkwMDc2NjIyNTk2MTU1LCJ5IjozODR9LHsieCI6MTg4Ljc0NjA5Mzc1LCJ5Ijo0MDl9LHsieCI6MTg4Ljc0NjA5Mzc1LCJ5Ijo0MzR9LHsieCI6MjE2LjM0NTIwMzMyNjcwODg4LCJ5Ijo0NjAuODc2OTc1OTUxNTYwNTV9XQ==" data-look="classic" marker-end="url(#container_flowchart-v2-pointEnd)"></path><path d="M553.633,384L554.489,388.167C555.345,392.333,557.057,400.667,557.913,409C558.77,417.333,558.77,425.667,553.882,434.535C548.994,443.404,539.219,452.808,534.331,457.51L529.443,462.212" id="container-L_app1_dbp_0" class="edge-thickness-normal edge-pattern-solid edge-thickness-normal edge-pattern-solid flowchart-link" style=";" data-edge="true" data-et="edge" data-id="L_app1_dbp_0" data-points="W3sieCI6NTUzLjYzMzE4ODEwMDk2MTUsInkiOjM4NH0seyJ4Ijo1NTguNzY5NTMxMjUsInkiOjQwOX0seyJ4Ijo1NTguNzY5NTMxMjUsInkiOjQzNH0seyJ4Ijo1MjYuNTYwNDYyOTI4NjkyNiwieSI6NDY0Ljk4NTY0NDU5NzE2NDJ9XQ==" data-look="classic" marker-end="url(#container_flowchart-v2-pointEnd)"></path><path d="M251.307,384L255.134,388.167C258.961,392.333,266.615,400.667,288.403,409C310.19,417.333,346.111,425.667,370.388,434.998C394.664,444.329,407.298,454.659,413.614,459.824L419.931,464.988" id="container-L_app2_dbp_0" class="edge-thickness-normal edge-pattern-solid edge-thickness-normal edge-pattern-solid flowchart-link" style=";" data-edge="true" data-et="edge" data-id="L_app2_dbp_0" data-points="W3sieCI6MjUxLjMwNzE2NjQ2NjM0NjE2LCJ5IjozODR9LHsieCI6Mjc0LjI2OTUzMTI1LCJ5Ijo0MDl9LHsieCI6MzgyLjAzMTI1LCJ5Ijo0MzR9LHsieCI6NDIzLjAyNzU1MTQ1ODA0NDM0LCJ5Ijo0NjcuNTIwMzgyODU3OTk3OX1d" data-look="classic" marker-end="url(#container_flowchart-v2-pointEnd)"></path><path d="M425.867,539.09L420.226,544.012C414.586,548.934,403.305,558.778,397.664,567.199C392.023,575.621,392.023,582.621,392.023,586.121L392.023,589.621" id="container-L_dbp_dbs_0" class="edge-thickness-normal edge-pattern-solid edge-thickness-normal edge-pattern-solid flowchart-link" style=";" data-edge="true" data-et="edge" data-id="L_dbp_dbs_0" data-points="W3sieCI6NDI4Ljg4MDk1Mzc2ODYxODI3LCJ5Ijo1MzYuNDYwMjY3Njg5NjMyNH0seyJ4IjozOTIuMDIzNDM3NSwieSI6NTY4LjYyMTM2MDc3ODgwODZ9LHsieCI6MzkyLjAyMzQzNzUsInkiOjU5My42MjEzNjA3Nzg4MDg2fV0=" data-look="classic" marker-start="url(#container_flowchart-v2-pointStart)" marker-end="url(#container_flowchart-v2-pointEnd)"></path><path d="M533.135,536.46L539.278,541.82C545.421,547.181,557.706,557.901,563.849,567.15C569.992,576.399,569.992,584.176,569.992,588.065L569.992,591.953" id="container-L_dbp_dbr_0" class="edge-thickness-normal edge-pattern-solid edge-thickness-normal edge-pattern-solid flowchart-link" style=";" data-edge="true" data-et="edge" data-id="L_dbp_dbr_0" data-points="W3sieCI6NTMzLjEzNDY3MTIzMTM4MTcsInkiOjUzNi40NjAyNjc2ODk2MzI0fSx7IngiOjU2OS45OTIxODc1LCJ5Ijo1NjguNjIxMzYwNzc4ODA4Nn0seyJ4Ijo1NjkuOTkyMTg3NSwieSI6NTk1Ljk1MzM3Njc3MDAxOTV9XQ==" data-look="classic" marker-end="url(#container_flowchart-v2-pointEnd)"></path><path d="M628.609,383.832L641.198,388.026C653.786,392.221,678.964,400.611,691.552,408.972C704.141,417.333,704.141,425.667,704.141,433.712C704.141,441.757,704.141,449.514,704.141,453.393L704.141,457.271" id="container-L_app1_obj_0" class="edge-thickness-normal edge-pattern-solid edge-thickness-normal edge-pattern-solid flowchart-link" style=";" data-edge="true" data-et="edge" data-id="L_app1_obj_0" data-points="W3sieCI6NjI4LjYwOTM3NSwieSI6MzgzLjgzMTczOTY3NDU5MzJ9LHsieCI6NzA0LjE0MDYyNSwieSI6NDA5fSx7IngiOjcwNC4xNDA2MjUsInkiOjQzNH0seyJ4Ijo3MDQuMTQwNjI1LCJ5Ijo0NjEuMjcxMzMxNzg3MTA5NH1d" data-look="classic" marker-end="url(#container_flowchart-v2-pointEnd)"></path></g><g class="edgeLabels"><g class="edgeLabel"><g class="label" data-id="L_u_dns_0" transform="translate(0, 0)"><foreignObject width="0" height="0"><div xmlns="http://www.w3.org/1999/xhtml" class="labelBkg" style="display: table-cell; white-space: nowrap; line-height: 1.5; max-width: 200px; text-align: center;"><span class="edgeLabel"></span></div></foreignObject></g></g><g class="edgeLabel"><g class="label" data-id="L_dns_cdn_0" transform="translate(0, 0)"><foreignObject width="0" height="0"><div xmlns="http://www.w3.org/1999/xhtml" class="labelBkg" style="display: table-cell; white-space: nowrap; line-height: 1.5; max-width: 200px; text-align: center;"><span class="edgeLabel"></span></div></foreignObject></g></g><g class="edgeLabel"><g class="label" data-id="L_dns_lb_0" transform="translate(0, 0)"><foreignObject width="0" height="0"><div xmlns="http://www.w3.org/1999/xhtml" class="labelBkg" style="display: table-cell; white-space: nowrap; line-height: 1.5; max-width: 200px; text-align: center;"><span class="edgeLabel"></span></div></foreignObject></g></g><g class="edgeLabel"><g class="label" data-id="L_lb_app1_0" transform="translate(0, 0)"><foreignObject width="0" height="0"><div xmlns="http://www.w3.org/1999/xhtml" class="labelBkg" style="display: table-cell; white-space: nowrap; line-height: 1.5; max-width: 200px; text-align: center;"><span class="edgeLabel"></span></div></foreignObject></g></g><g class="edgeLabel"><g class="label" data-id="L_lb_app2_0" transform="translate(0, 0)"><foreignObject width="0" height="0"><div xmlns="http://www.w3.org/1999/xhtml" class="labelBkg" style="display: table-cell; white-space: nowrap; line-height: 1.5; max-width: 200px; text-align: center;"><span class="edgeLabel"></span></div></foreignObject></g></g><g class="edgeLabel"><g class="label" data-id="L_app1_cache_0" transform="translate(0, 0)"><foreignObject width="0" height="0"><div xmlns="http://www.w3.org/1999/xhtml" class="labelBkg" style="display: table-cell; white-space: nowrap; line-height: 1.5; max-width: 200px; text-align: center;"><span class="edgeLabel"></span></div></foreignObject></g></g><g class="edgeLabel"><g class="label" data-id="L_app2_cache_0" transform="translate(0, 0)"><foreignObject width="0" height="0"><div xmlns="http://www.w3.org/1999/xhtml" class="labelBkg" style="display: table-cell; white-space: nowrap; line-height: 1.5; max-width: 200px; text-align: center;"><span class="edgeLabel"></span></div></foreignObject></g></g><g class="edgeLabel"><g class="label" data-id="L_app1_dbp_0" transform="translate(0, 0)"><foreignObject width="0" height="0"><div xmlns="http://www.w3.org/1999/xhtml" class="labelBkg" style="display: table-cell; white-space: nowrap; line-height: 1.5; max-width: 200px; text-align: center;"><span class="edgeLabel"></span></div></foreignObject></g></g><g class="edgeLabel"><g class="label" data-id="L_app2_dbp_0" transform="translate(0, 0)"><foreignObject width="0" height="0"><div xmlns="http://www.w3.org/1999/xhtml" class="labelBkg" style="display: table-cell; white-space: nowrap; line-height: 1.5; max-width: 200px; text-align: center;"><span class="edgeLabel"></span></div></foreignObject></g></g><g class="edgeLabel"><g class="label" data-id="L_dbp_dbs_0" transform="translate(0, 0)"><foreignObject width="0" height="0"><div xmlns="http://www.w3.org/1999/xhtml" class="labelBkg" style="display: table-cell; white-space: nowrap; line-height: 1.5; max-width: 200px; text-align: center;"><span class="edgeLabel"></span></div></foreignObject></g></g><g class="edgeLabel"><g class="label" data-id="L_dbp_dbr_0" transform="translate(0, 0)"><foreignObject width="0" height="0"><div xmlns="http://www.w3.org/1999/xhtml" class="labelBkg" style="display: table-cell; white-space: nowrap; line-height: 1.5; max-width: 200px; text-align: center;"><span class="edgeLabel"></span></div></foreignObject></g></g><g class="edgeLabel"><g class="label" data-id="L_app1_obj_0" transform="translate(0, 0)"><foreignObject width="0" height="0"><div xmlns="http://www.w3.org/1999/xhtml" class="labelBkg" style="display: table-cell; white-space: nowrap; line-height: 1.5; max-width: 200px; text-align: center;"><span class="edgeLabel"></span></div></foreignObject></g></g></g><g class="nodes"><g class="node default client" id="container-flowchart-u-0" data-look="classic" transform="translate(238.625, 27.5)"><g class="basic label-container outer-path"><path d="M-12.9375 -19.5 C-5.735724469108955 -19.5, 1.4660510617820908 -19.5, 12.9375 -19.5 C12.9375 -19.5, 12.937499999999998 -19.5, 12.937499999999998 -19.5 C13.218501402521742 -19.49098883195718, 13.499502805043486 -19.481977663914353, 14.1868692896239 -19.45993515863156 C14.523449064203316 -19.427465712574286, 14.860028838782732 -19.394996266517012, 15.431104652847864 -19.3399052695533 C15.741830616261689 -19.28966950550439, 16.052556579675514 -19.23943374145548, 16.66509325967676 -19.140403561325776 C16.958258268207892 -19.073490561209013, 17.251423276739022 -19.00657756109225, 17.88376438623539 -18.862249829261074 C18.229335105960764 -18.759686253584306, 18.574905825686137 -18.65712267790754, 19.082110251460602 -18.50658706670804 C19.39792714811363 -18.390363529360336, 19.713744044766656 -18.274139992012632, 20.255206595147794 -18.074876768247425 C20.625304358540397 -17.911045466953603, 20.995402121933 -17.747214165659777, 21.39823291279238 -17.568892924097174 C21.638365745158758 -17.443615779264054, 21.87849857752514 -17.318338634430933, 22.506492264076783 -16.990714730406097 C22.91312329695156 -16.744212608648212, 23.319754329826342 -16.497710486890327, 23.575430573605697 -16.342718045390892 C23.799882931399793 -16.1861497969797, 24.02433528919389 -16.02958154856851, 24.600655344578712 -15.627565626425154 C24.946604185505 -15.351680631871726, 25.29255302643129 -15.0757956373183, 25.57795370850187 -14.848196188198123 C25.799682719802984 -14.646827766762609, 26.0214117311041 -14.445459345327095, 26.503309736767985 -14.007812326905688 C26.746861266034877 -13.756325376985195, 26.99041279530177 -13.504838427064701, 27.372920942968648 -13.10986736009568 C27.602759381244265 -12.839886052319514, 27.832597819519883 -12.569904744543349, 28.183213908126582 -12.158051136245305 C28.414741903646725 -11.84782471488262, 28.64626989916687 -11.537598293519933, 28.930858964640635 -11.156274872382312 C29.105237056019682 -10.888383296950154, 29.279615147398726 -10.620491721517997, 29.612783878604247 -10.108655082055241 C29.809018516770056 -9.760220611080006, 30.005253154935865 -9.411786140104772, 30.2261864742735 -9.019496659696287 C30.416588964637604 -8.624121814494565, 30.60699145500171 -8.228746969292843, 30.76854614880834 -7.893275190886684 C30.923459968890814 -7.510635060228018, 31.078373788973288 -7.127994929569351, 31.237634229970325 -6.734618561215508 C31.388445924727417 -6.280397765187558, 31.53925761948451 -5.82617696915961, 31.63152313421488 -5.548287939305138 C31.699937122587333 -5.287395750830859, 31.768351110959784 -5.026503562356581, 31.94859428754556 -4.339158212148133 C32.031349806658106 -3.9142261118903767, 32.114105325770645 -3.48929401163262, 32.187544776581774 -3.1121979531509023 C32.25055830526507 -2.62347746811191, 32.31357183394838 -2.134756983072917, 32.34739270250937 -1.872449005199798 C32.371049385481314 -1.5039770725809753, 32.39470606845325 -1.1355051399621527, 32.42748121591342 -0.6250057626472757 C32.42748121591342 -0.25553106150474003, 32.42748121591342 0.11394363963779564, 32.42748121591342 0.625005762647271 C32.39956036036869 1.0598956250653548, 32.37163950482396 1.4947854874834385, 32.34739270250937 1.8724490051997846 C32.31475480376898 2.125582102748157, 32.28211690502859 2.37871520029653, 32.187544776581774 3.1121979531508885 C32.131643939953655 3.3992369345902897, 32.075743103325536 3.686275916029691, 31.94859428754556 4.339158212148129 C31.838442561270977 4.75921448449327, 31.728290834996397 5.1792707568384095, 31.631523134214884 5.548287939305125 C31.50888817513594 5.917644896823659, 31.386253216056993 6.287001854342193, 31.23763422997033 6.734618561215495 C31.137540039466952 6.981853146948362, 31.037445848963575 7.229087732681229, 30.768546148808344 7.893275190886679 C30.645223037548156 8.149358270110326, 30.521899926287972 8.405441349333975, 30.226186474273504 9.019496659696284 C30.020795001242544 9.384190018204674, 29.81540352821158 9.748883376713062, 29.61278387860425 10.108655082055236 C29.416686198112494 10.409913778890823, 29.22058851762074 10.711172475726412, 28.93085896464064 11.156274872382301 C28.683038544093826 11.488331659010274, 28.435218123547006 11.82038844563825, 28.183213908126582 12.158051136245302 C27.965930146950704 12.41328500591875, 27.748646385774826 12.668518875592198, 27.37292094296866 13.10986736009567 C27.123039100274198 13.367890878358526, 26.873157257579738 13.625914396621381, 26.50330973676799 14.007812326905684 C26.140460725452602 14.33734219852357, 25.777611714137212 14.666872070141457, 25.577953708501887 14.848196188198111 C25.22249373083624 15.131666061199198, 24.867033753170595 15.415135934200284, 24.600655344578715 15.627565626425152 C24.246652448573585 15.874502722139953, 23.892649552568454 16.121439817854753, 23.575430573605708 16.34271804539089 C23.18181539784029 16.581329878079412, 22.78820022207487 16.81994171076794, 22.506492264076787 16.990714730406093 C22.078547171944543 17.21397341085957, 21.650602079812302 17.43723209131305, 21.398232912792388 17.56889292409717 C21.030282521093785 17.731773647641578, 20.662332129395182 17.894654371185986, 20.255206595147804 18.07487676824742 C19.889161160828266 18.209584871763912, 19.523115726508728 18.344292975280403, 19.082110251460616 18.506587066708033 C18.655857398384956 18.633096676054006, 18.229604545309293 18.759606285399983, 17.883764386235413 18.86224982926107 C17.531247287013535 18.942709556769408, 17.178730187791654 19.02316928427775, 16.665093259676766 19.140403561325773 C16.414365618417982 19.180939261942594, 16.163637977159194 19.22147496255942, 15.431104652847878 19.3399052695533 C15.17588987050297 19.36452553266543, 14.920675088158063 19.38914579577756, 14.1868692896239 19.45993515863156 C13.8071075784517 19.472113377547522, 13.427345867279499 19.484291596463486, 12.937500000000004 19.5 C12.937500000000002 19.5, 12.937500000000002 19.5, 12.9375 19.5 C3.2355027838040336 19.5, -6.466494432391933 19.5, -12.937499999999996 19.5 C-13.340558155053674 19.487074709472534, -13.743616310107353 19.474149418945068, -14.186869289623893 19.45993515863156 C-14.528710977940081 19.426958102084477, -14.870552666256271 19.393981045537394, -15.431104652847871 19.3399052695533 C-15.866773513889148 19.26946970676262, -16.302442374930425 19.199034143971947, -16.66509325967676 19.140403561325773 C-16.972760360154204 19.070180553357257, -17.28042746063165 18.999957545388742, -17.883764386235388 18.862249829261074 C-18.28145420289397 18.744217579193254, -18.679144019552552 18.626185329125434, -19.08211025146059 18.506587066708043 C-19.323234649480597 18.41785105930718, -19.564359047500602 18.329115051906317, -20.255206595147797 18.074876768247425 C-20.59534475284157 17.924307695676347, -20.935482910535338 17.77373862310527, -21.39823291279238 17.568892924097174 C-21.666650158954198 17.428859818704005, -21.935067405116015 17.288826713310836, -22.50649226407678 16.990714730406097 C-22.821113817804356 16.799989295614964, -23.135735371531933 16.609263860823827, -23.575430573605686 16.3427180453909 C-23.81462531506278 16.1758661483239, -24.053820056519875 16.009014251256907, -24.600655344578712 15.627565626425156 C-24.83285847311543 15.442389810601883, -25.065061601652147 15.25721399477861, -25.57795370850187 14.848196188198125 C-25.883479884343913 14.570725399078016, -26.189006060185957 14.293254609957907, -26.503309736767974 14.007812326905697 C-26.734149726569516 13.769451085119977, -26.96498971637106 13.531089843334257, -27.372920942968655 13.109867360095677 C-27.63062034887997 12.807158974400652, -27.88831975479128 12.504450588705629, -28.18321390812658 12.158051136245307 C-28.423832890020154 11.835643621348122, -28.66445187191373 11.513236106450936, -28.930858964640635 11.156274872382316 C-29.067318836560624 10.946635864506872, -29.203778708480613 10.736996856631428, -29.612783878604244 10.108655082055249 C-29.75543996607997 9.855354753246829, -29.89809605355569 9.60205442443841, -30.2261864742735 9.019496659696289 C-30.43893766917132 8.577714251344634, -30.65168886406914 8.135931842992978, -30.76854614880834 7.893275190886686 C-30.919476754418415 7.520473676985055, -31.07040736002849 7.147672163083422, -31.237634229970325 6.73461856121551 C-31.316639022595826 6.49666871353176, -31.395643815221327 6.25871886584801, -31.63152313421488 5.5482879393051325 C-31.719183154254527 5.214002290800945, -31.806843174294176 4.879716642296757, -31.948594287545557 4.339158212148136 C-32.00501532791526 4.049448094440819, -32.06143636828496 3.7597379767335015, -32.187544776581774 3.112197953150904 C-32.231189677848874 2.773696717583849, -32.27483457911598 2.435195482016794, -32.34739270250937 1.872449005199809 C-32.363438140955 1.6225283497642713, -32.379483579400635 1.3726076943287335, -32.42748121591342 0.6250057626472781 C-32.42748121591342 0.2606095882303424, -32.42748121591342 -0.10378658618659331, -32.42748121591342 -0.6250057626472687 C-32.41099214461307 -0.881836357889004, -32.39450307331272 -1.1386669531307394, -32.34739270250937 -1.8724490051997822 C-32.31012686230503 -2.161475502852065, -32.272861022100706 -2.4505020005043483, -32.187544776581774 -3.112197953150895 C-32.098832634413974 -3.5677160538646824, -32.010120492246166 -4.02323415457847, -31.94859428754556 -4.339158212148126 C-31.878721590061375 -4.605613090673973, -31.808848892577192 -4.87206796919982, -31.631523134214884 -5.548287939305123 C-31.52732858889051 -5.8621053086758295, -31.42313404356613 -6.175922678046537, -31.237634229970332 -6.734618561215485 C-31.12613009798177 -7.01003592301297, -31.014625965993208 -7.285453284810456, -30.768546148808344 -7.893275190886676 C-30.59563698935395 -8.252324760157068, -30.422727829899554 -8.61137432942746, -30.226186474273504 -9.019496659696282 C-30.074602916282856 -9.288648616408366, -29.92301935829221 -9.55780057312045, -29.612783878604247 -10.108655082055243 C-29.423415647395966 -10.399575537681262, -29.23404741618769 -10.690495993307279, -28.93085896464064 -11.156274872382308 C-28.78122824659046 -11.356766402930708, -28.63159752854028 -11.557257933479107, -28.183213908126586 -12.158051136245302 C-27.865447349468358 -12.531317817474669, -27.54768079081013 -12.904584498704034, -27.372920942968662 -13.10986736009567 C-27.1748179224491 -13.314424993342582, -26.976714901929537 -13.518982626589493, -26.503309736767996 -14.007812326905677 C-26.270802927945027 -14.218968858885642, -26.03829611912206 -14.430125390865609, -25.577953708501887 -14.848196188198107 C-25.251470406481097 -15.108557933474145, -24.924987104460307 -15.368919678750183, -24.60065534457872 -15.627565626425149 C-24.250092792284224 -15.872102887297489, -23.899530239989726 -16.11664014816983, -23.57543057360571 -16.342718045390885 C-23.191742356559743 -16.575312097366393, -22.808054139513775 -16.807906149341903, -22.50649226407679 -16.99071473040609 C-22.099437018727013 -17.203075191173742, -21.692381773377235 -17.415435651941394, -21.398232912792388 -17.56889292409717 C-21.154980845475574 -17.676573398482127, -20.91172877815876 -17.78425387286708, -20.255206595147804 -18.07487676824742 C-19.830087096848498 -18.23132467338313, -19.404967598549188 -18.387772578518838, -19.08211025146062 -18.506587066708033 C-18.765095306749867 -18.600675438252782, -18.448080362039114 -18.694763809797532, -17.883764386235413 -18.862249829261067 C-17.628758058255162 -18.920453359550756, -17.37375173027491 -18.97865688984044, -16.665093259676766 -19.140403561325773 C-16.243636195536805 -19.208541471007575, -15.822179131396847 -19.276679380689377, -15.43110465284788 -19.3399052695533 C-14.993921074655898 -19.3820798435513, -14.556737496463915 -19.424254417549303, -14.186869289623903 -19.45993515863156 C-13.692463010655642 -19.475789805694628, -13.198056731687378 -19.491644452757697, -12.937500000000005 -19.5 C-12.937500000000004 -19.5, -12.937500000000002 -19.5, -12.9375 -19.5" stroke="none" stroke-width="0" fill="#164e63" style="fill:#164e63 !important;stroke:#22d3ee !important;stroke-width:1.5px !important"></path><path d="M-12.9375 -19.5 C-7.136414027483561 -19.5, -1.3353280549671211 -19.5, 12.9375 -19.5 M-12.9375 -19.5 C-5.938266569090771 -19.5, 1.0609668618184571 -19.5, 12.9375 -19.5 M12.9375 -19.5 C12.9375 -19.5, 12.937499999999998 -19.5, 12.937499999999998 -19.5 M12.9375 -19.5 C12.9375 -19.5, 12.937499999999998 -19.5, 12.937499999999998 -19.5 M12.937499999999998 -19.5 C13.410563474453477 -19.484829775136472, 13.883626948906958 -19.469659550272944, 14.1868692896239 -19.45993515863156 M12.937499999999998 -19.5 C13.435838292550823 -19.48401926091454, 13.934176585101646 -19.468038521829076, 14.1868692896239 -19.45993515863156 M14.1868692896239 -19.45993515863156 C14.587631031986374 -19.421274155332362, 14.98839277434885 -19.382613152033166, 15.431104652847864 -19.3399052695533 M14.1868692896239 -19.45993515863156 C14.550009706338264 -19.424903439371374, 14.913150123052628 -19.389871720111184, 15.431104652847864 -19.3399052695533 M15.431104652847864 -19.3399052695533 C15.801063545550678 -19.280093184855172, 16.17102243825349 -19.220281100157045, 16.66509325967676 -19.140403561325776 M15.431104652847864 -19.3399052695533 C15.780290752614139 -19.283451568921734, 16.129476852380414 -19.226997868290173, 16.66509325967676 -19.140403561325776 M16.66509325967676 -19.140403561325776 C17.034421998331155 -19.056106686823163, 17.40375073698555 -18.971809812320554, 17.88376438623539 -18.862249829261074 M16.66509325967676 -19.140403561325776 C16.941798886302866 -19.07724730772133, 17.218504512928977 -19.014091054116882, 17.88376438623539 -18.862249829261074 M17.88376438623539 -18.862249829261074 C18.354187987669306 -18.722630573659362, 18.824611589103217 -18.58301131805765, 19.082110251460602 -18.50658706670804 M17.88376438623539 -18.862249829261074 C18.32927500484695 -18.73002461619012, 18.774785623458506 -18.59779940311917, 19.082110251460602 -18.50658706670804 M19.082110251460602 -18.50658706670804 C19.50023599435906 -18.35271292820941, 19.918361737257516 -18.19883878971078, 20.255206595147794 -18.074876768247425 M19.082110251460602 -18.50658706670804 C19.43905029925085 -18.375229829603594, 19.7959903470411 -18.24387259249915, 20.255206595147794 -18.074876768247425 M20.255206595147794 -18.074876768247425 C20.545610359509528 -17.94632363628608, 20.836014123871262 -17.817770504324734, 21.39823291279238 -17.568892924097174 M20.255206595147794 -18.074876768247425 C20.554275722702684 -17.942487737049337, 20.853344850257574 -17.81009870585125, 21.39823291279238 -17.568892924097174 M21.39823291279238 -17.568892924097174 C21.833622445841513 -17.34175048358575, 22.269011978890646 -17.114608043074323, 22.506492264076783 -16.990714730406097 M21.39823291279238 -17.568892924097174 C21.695748043771317 -17.413679470833, 21.993263174750254 -17.258466017568825, 22.506492264076783 -16.990714730406097 M22.506492264076783 -16.990714730406097 C22.753068194955098 -16.84123895206665, 22.999644125833417 -16.691763173727203, 23.575430573605697 -16.342718045390892 M22.506492264076783 -16.990714730406097 C22.724464945226945 -16.85857841014321, 22.942437626377107 -16.726442089880326, 23.575430573605697 -16.342718045390892 M23.575430573605697 -16.342718045390892 C23.917511747237157 -16.104097027120922, 24.259592920868617 -15.865476008850953, 24.600655344578712 -15.627565626425154 M23.575430573605697 -16.342718045390892 C23.884254275673765 -16.127295999590807, 24.19307797774183 -15.91187395379072, 24.600655344578712 -15.627565626425154 M24.600655344578712 -15.627565626425154 C24.93800605048029 -15.358537415747952, 25.275356756381868 -15.089509205070748, 25.57795370850187 -14.848196188198123 M24.600655344578712 -15.627565626425154 C24.856509805305258 -15.423528502568875, 25.112364266031808 -15.219491378712593, 25.57795370850187 -14.848196188198123 M25.57795370850187 -14.848196188198123 C25.892495464393125 -14.562537687816496, 26.207037220284384 -14.276879187434869, 26.503309736767985 -14.007812326905688 M25.57795370850187 -14.848196188198123 C25.895494726559928 -14.559813837272735, 26.21303574461799 -14.271431486347346, 26.503309736767985 -14.007812326905688 M26.503309736767985 -14.007812326905688 C26.81268968692973 -13.68835212779739, 27.122069637091474 -13.368891928689095, 27.372920942968648 -13.10986736009568 M26.503309736767985 -14.007812326905688 C26.71946432881534 -13.784614963994745, 26.935618920862694 -13.5614176010838, 27.372920942968648 -13.10986736009568 M27.372920942968648 -13.10986736009568 C27.605676142345107 -12.836459858762057, 27.838431341721567 -12.563052357428434, 28.183213908126582 -12.158051136245305 M27.372920942968648 -13.10986736009568 C27.622604629378138 -12.81657469463486, 27.872288315787625 -12.523282029174043, 28.183213908126582 -12.158051136245305 M28.183213908126582 -12.158051136245305 C28.464449113609643 -11.781221581952298, 28.745684319092703 -11.40439202765929, 28.930858964640635 -11.156274872382312 M28.183213908126582 -12.158051136245305 C28.365771618350593 -11.91344043589467, 28.548329328574606 -11.668829735544033, 28.930858964640635 -11.156274872382312 M28.930858964640635 -11.156274872382312 C29.112588288547126 -10.877089829705668, 29.294317612453618 -10.597904787029021, 29.612783878604247 -10.108655082055241 M28.930858964640635 -11.156274872382312 C29.09190008069229 -10.908872472532355, 29.252941196743947 -10.661470072682397, 29.612783878604247 -10.108655082055241 M29.612783878604247 -10.108655082055241 C29.754551837256216 -9.856931715906192, 29.896319795908187 -9.605208349757143, 30.2261864742735 -9.019496659696287 M29.612783878604247 -10.108655082055241 C29.8044065275709 -9.768409664917655, 29.996029176537554 -9.428164247780067, 30.2261864742735 -9.019496659696287 M30.2261864742735 -9.019496659696287 C30.43926586544992 -8.577032744749847, 30.652345256626337 -8.134568829803408, 30.76854614880834 -7.893275190886684 M30.2261864742735 -9.019496659696287 C30.360596976708482 -8.740390375466013, 30.49500747914346 -8.461284091235738, 30.76854614880834 -7.893275190886684 M30.76854614880834 -7.893275190886684 C30.93088772961547 -7.492288347632133, 31.0932293104226 -7.091301504377581, 31.237634229970325 -6.734618561215508 M30.76854614880834 -7.893275190886684 C30.884260596567465 -7.607458267734997, 30.999975044326586 -7.321641344583309, 31.237634229970325 -6.734618561215508 M31.237634229970325 -6.734618561215508 C31.31844195916843 -6.491238555834008, 31.399249688366535 -6.247858550452508, 31.63152313421488 -5.548287939305138 M31.237634229970325 -6.734618561215508 C31.320587969745688 -6.484775113895663, 31.40354170952105 -6.234931666575817, 31.63152313421488 -5.548287939305138 M31.63152313421488 -5.548287939305138 C31.742967170961855 -5.123303527037874, 31.854411207708825 -4.6983191147706105, 31.94859428754556 -4.339158212148133 M31.63152313421488 -5.548287939305138 C31.723178521846005 -5.198766222571384, 31.81483390947713 -4.84924450583763, 31.94859428754556 -4.339158212148133 M31.94859428754556 -4.339158212148133 C32.01215647190617 -4.0127798293288475, 32.075718656266766 -3.6864014465095623, 32.187544776581774 -3.1121979531509023 M31.94859428754556 -4.339158212148133 C32.01980373188157 -3.9735127656041436, 32.091013176217565 -3.607867319060154, 32.187544776581774 -3.1121979531509023 M32.187544776581774 -3.1121979531509023 C32.22592613085814 -2.8145197486390865, 32.26430748513451 -2.5168415441272707, 32.34739270250937 -1.872449005199798 M32.187544776581774 -3.1121979531509023 C32.24115480113813 -2.696409189188585, 32.294764825694486 -2.280620425226268, 32.34739270250937 -1.872449005199798 M32.34739270250937 -1.872449005199798 C32.37147681093231 -1.4973195761701263, 32.39556091935524 -1.122190147140455, 32.42748121591342 -0.6250057626472757 M32.34739270250937 -1.872449005199798 C32.37522286205177 -1.438971806226399, 32.403053021594175 -1.0054946072529998, 32.42748121591342 -0.6250057626472757 M32.42748121591342 -0.6250057626472757 C32.42748121591342 -0.1311015984787341, 32.42748121591342 0.3628025656898075, 32.42748121591342 0.625005762647271 M32.42748121591342 -0.6250057626472757 C32.42748121591342 -0.3130383971102603, 32.42748121591342 -0.0010710315732449516, 32.42748121591342 0.625005762647271 M32.42748121591342 0.625005762647271 C32.40381547844014 0.9936187264330889, 32.38014974096686 1.3622316902189069, 32.34739270250937 1.8724490051997846 M32.42748121591342 0.625005762647271 C32.396818665443874 1.1025997365756413, 32.36615611497433 1.5801937105040114, 32.34739270250937 1.8724490051997846 M32.34739270250937 1.8724490051997846 C32.31069562067152 2.1570643252757, 32.27399853883366 2.4416796453516145, 32.187544776581774 3.1121979531508885 M32.34739270250937 1.8724490051997846 C32.301081367404315 2.2316305750670633, 32.25477003229926 2.590812144934342, 32.187544776581774 3.1121979531508885 M32.187544776581774 3.1121979531508885 C32.11975083080701 3.4603055364488107, 32.05195688503224 3.8084131197467324, 31.94859428754556 4.339158212148129 M32.187544776581774 3.1121979531508885 C32.1303200408909 3.4060348764713613, 32.07309530520003 3.699871799791834, 31.94859428754556 4.339158212148129 M31.94859428754556 4.339158212148129 C31.87281872550638 4.62812327153986, 31.797043163467198 4.917088330931591, 31.631523134214884 5.548287939305125 M31.94859428754556 4.339158212148129 C31.8441458651982 4.737465314791218, 31.739697442850836 5.135772417434308, 31.631523134214884 5.548287939305125 M31.631523134214884 5.548287939305125 C31.51264104691356 5.906341844968373, 31.393758959612242 6.26439575063162, 31.23763422997033 6.734618561215495 M31.631523134214884 5.548287939305125 C31.493712423220177 5.963351843666226, 31.35590171222547 6.378415748027327, 31.23763422997033 6.734618561215495 M31.23763422997033 6.734618561215495 C31.073288734536565 7.140555112340892, 30.9089432391028 7.5464916634662895, 30.768546148808344 7.893275190886679 M31.23763422997033 6.734618561215495 C31.11199089623958 7.0449600246790505, 30.98634756250883 7.355301488142606, 30.768546148808344 7.893275190886679 M30.768546148808344 7.893275190886679 C30.556525580100953 8.333540438321013, 30.34450501139356 8.773805685755345, 30.226186474273504 9.019496659696284 M30.768546148808344 7.893275190886679 C30.603115740546006 8.236794973287124, 30.437685332283667 8.580314755687567, 30.226186474273504 9.019496659696284 M30.226186474273504 9.019496659696284 C30.057925247378098 9.31826150634587, 29.88966402048269 9.617026352995456, 29.61278387860425 10.108655082055236 M30.226186474273504 9.019496659696284 C30.098074439153656 9.246972550801846, 29.969962404033808 9.474448441907409, 29.61278387860425 10.108655082055236 M29.61278387860425 10.108655082055236 C29.45565413766306 10.35004855938424, 29.29852439672187 10.591442036713243, 28.93085896464064 11.156274872382301 M29.61278387860425 10.108655082055236 C29.46778045541605 10.331419278943393, 29.32277703222785 10.554183475831552, 28.93085896464064 11.156274872382301 M28.93085896464064 11.156274872382301 C28.700256870119905 11.465260670757099, 28.469654775599167 11.774246469131896, 28.183213908126582 12.158051136245302 M28.93085896464064 11.156274872382301 C28.766494972475243 11.376507648016206, 28.60213098030985 11.596740423650111, 28.183213908126582 12.158051136245302 M28.183213908126582 12.158051136245302 C27.902303477578304 12.488024512223625, 27.621393047030022 12.817997888201946, 27.37292094296866 13.10986736009567 M28.183213908126582 12.158051136245302 C27.95969821730311 12.420605385089656, 27.736182526479638 12.68315963393401, 27.37292094296866 13.10986736009567 M27.37292094296866 13.10986736009567 C27.026187887379496 13.467897707304763, 26.679454831790334 13.825928054513858, 26.50330973676799 14.007812326905684 M27.37292094296866 13.10986736009567 C27.150510017151635 13.339524901278352, 26.92809909133461 13.569182442461035, 26.50330973676799 14.007812326905684 M26.50330973676799 14.007812326905684 C26.242233764729217 14.244914617019608, 25.981157792690443 14.48201690713353, 25.577953708501887 14.848196188198111 M26.50330973676799 14.007812326905684 C26.19014748763661 14.292217995747738, 25.876985238505238 14.57662366458979, 25.577953708501887 14.848196188198111 M25.577953708501887 14.848196188198111 C25.1987200011424 15.150624977984517, 24.819486293782916 15.453053767770925, 24.600655344578715 15.627565626425152 M25.577953708501887 14.848196188198111 C25.348607363017592 15.031093795559265, 25.1192610175333 15.213991402920419, 24.600655344578715 15.627565626425152 M24.600655344578715 15.627565626425152 C24.217636233688633 15.894743177551996, 23.834617122798555 16.16192072867884, 23.575430573605708 16.34271804539089 M24.600655344578715 15.627565626425152 C24.287721365316 15.845854823665196, 23.974787386053286 16.06414402090524, 23.575430573605708 16.34271804539089 M23.575430573605708 16.34271804539089 C23.309312878024087 16.504040156333634, 23.04319518244247 16.66536226727638, 22.506492264076787 16.990714730406093 M23.575430573605708 16.34271804539089 C23.211243537302188 16.563490366998664, 22.847056500998672 16.784262688606443, 22.506492264076787 16.990714730406093 M22.506492264076787 16.990714730406093 C22.158479669023496 17.17227267833269, 21.810467073970205 17.353830626259285, 21.398232912792388 17.56889292409717 M22.506492264076787 16.990714730406093 C22.0774130458259 17.214565083729223, 21.648333827575016 17.438415437052356, 21.398232912792388 17.56889292409717 M21.398232912792388 17.56889292409717 C21.028223795367907 17.732684984450497, 20.658214677943423 17.89647704480382, 20.255206595147804 18.07487676824742 M21.398232912792388 17.56889292409717 C20.960072923989053 17.762853353586145, 20.521912935185718 17.956813783075116, 20.255206595147804 18.07487676824742 M20.255206595147804 18.07487676824742 C19.972324028934842 18.17898016755157, 19.68944146272188 18.283083566855712, 19.082110251460616 18.506587066708033 M20.255206595147804 18.07487676824742 C20.015520150750014 18.16308359542301, 19.77583370635222 18.251290422598604, 19.082110251460616 18.506587066708033 M19.082110251460616 18.506587066708033 C18.810626688662303 18.58716196310027, 18.539143125863994 18.66773685949251, 17.883764386235413 18.86224982926107 M19.082110251460616 18.506587066708033 C18.668020814162173 18.6294866380984, 18.25393137686373 18.75238620948877, 17.883764386235413 18.86224982926107 M17.883764386235413 18.86224982926107 C17.56351835891993 18.9353438951952, 17.243272331604445 19.008437961129328, 16.665093259676766 19.140403561325773 M17.883764386235413 18.86224982926107 C17.47057769881102 18.95655699437057, 17.05739101138663 19.05086415948007, 16.665093259676766 19.140403561325773 M16.665093259676766 19.140403561325773 C16.192933585060654 19.216738675864743, 15.720773910444539 19.293073790403714, 15.431104652847878 19.3399052695533 M16.665093259676766 19.140403561325773 C16.38927174587309 19.184996244649767, 16.11345023206941 19.229588927973758, 15.431104652847878 19.3399052695533 M15.431104652847878 19.3399052695533 C15.10394861616494 19.3714656189494, 14.776792579482002 19.403025968345506, 14.1868692896239 19.45993515863156 M15.431104652847878 19.3399052695533 C15.036306348374636 19.377990987171405, 14.641508043901394 19.416076704789507, 14.1868692896239 19.45993515863156 M14.1868692896239 19.45993515863156 C13.862096035644361 19.470350004753893, 13.537322781664821 19.480764850876227, 12.937500000000004 19.5 M14.1868692896239 19.45993515863156 C13.775402544420905 19.473130096278787, 13.36393579921791 19.48632503392601, 12.937500000000004 19.5 M12.937500000000004 19.5 C12.937500000000002 19.5, 12.937500000000002 19.5, 12.9375 19.5 M12.937500000000004 19.5 C12.937500000000004 19.5, 12.937500000000002 19.5, 12.9375 19.5 M12.9375 19.5 C5.429514550966295 19.5, -2.07847089806741 19.5, -12.937499999999996 19.5 M12.9375 19.5 C5.167207730976325 19.5, -2.6030845380473497 19.5, -12.937499999999996 19.5 M-12.937499999999996 19.5 C-13.306166056018153 19.488177597148443, -13.674832112036308 19.47635519429689, -14.186869289623893 19.45993515863156 M-12.937499999999996 19.5 C-13.366122302127504 19.48625491703347, -13.794744604255014 19.47250983406694, -14.186869289623893 19.45993515863156 M-14.186869289623893 19.45993515863156 C-14.669344772673654 19.413391329043414, -15.151820255723415 19.366847499455265, -15.431104652847871 19.3399052695533 M-14.186869289623893 19.45993515863156 C-14.641364819754424 19.416090521450712, -15.095860349884955 19.37224588426987, -15.431104652847871 19.3399052695533 M-15.431104652847871 19.3399052695533 C-15.685203313094783 19.298824568729117, -15.939301973341696 19.25774386790494, -16.66509325967676 19.140403561325773 M-15.431104652847871 19.3399052695533 C-15.923477498720414 19.26030224624107, -16.415850344592958 19.180699222928848, -16.66509325967676 19.140403561325773 M-16.66509325967676 19.140403561325773 C-16.946356223397036 19.076207125268986, -17.227619187117313 19.0120106892122, -17.883764386235388 18.862249829261074 M-16.66509325967676 19.140403561325773 C-16.912309084784567 19.08397816247894, -17.15952490989238 19.027552763632105, -17.883764386235388 18.862249829261074 M-17.883764386235388 18.862249829261074 C-18.229279438073586 18.759702775521014, -18.574794489911785 18.657155721780953, -19.08211025146059 18.506587066708043 M-17.883764386235388 18.862249829261074 C-18.236093705518318 18.757680336712237, -18.588423024801248 18.6531108441634, -19.08211025146059 18.506587066708043 M-19.08211025146059 18.506587066708043 C-19.355184981697718 18.406093041705645, -19.628259711934845 18.305599016703248, -20.255206595147797 18.074876768247425 M-19.08211025146059 18.506587066708043 C-19.478694832658316 18.3606402748396, -19.87527941385604 18.214693482971157, -20.255206595147797 18.074876768247425 M-20.255206595147797 18.074876768247425 C-20.557119827883458 17.94122873605319, -20.85903306061912 17.807580703858957, -21.39823291279238 17.568892924097174 M-20.255206595147797 18.074876768247425 C-20.527014743101017 17.95455536405077, -20.798822891054233 17.834233959854114, -21.39823291279238 17.568892924097174 M-21.39823291279238 17.568892924097174 C-21.63076267715154 17.447582294973422, -21.863292441510698 17.32627166584967, -22.50649226407678 16.990714730406097 M-21.39823291279238 17.568892924097174 C-21.83632057388 17.340342871916302, -22.274408234967613 17.111792819735435, -22.50649226407678 16.990714730406097 M-22.50649226407678 16.990714730406097 C-22.768499657549565 16.831884308756543, -23.03050705102235 16.673053887106988, -23.575430573605686 16.3427180453909 M-22.50649226407678 16.990714730406097 C-22.80292732332522 16.81101405544392, -23.099362382573666 16.63131338048174, -23.575430573605686 16.3427180453909 M-23.575430573605686 16.3427180453909 C-23.824525998183134 16.16895986037281, -24.073621422760585 15.995201675354716, -24.600655344578712 15.627565626425156 M-23.575430573605686 16.3427180453909 C-23.798505300724347 16.18711077250222, -24.021580027843005 16.031503499613542, -24.600655344578712 15.627565626425156 M-24.600655344578712 15.627565626425156 C-24.862632672141388 15.418645679203394, -25.124609999704063 15.20972573198163, -25.57795370850187 14.848196188198125 M-24.600655344578712 15.627565626425156 C-24.804898536066503 15.46468711635323, -25.00914172755429 15.301808606281304, -25.57795370850187 14.848196188198125 M-25.57795370850187 14.848196188198125 C-25.930381735341907 14.528130378956613, -26.282809762181948 14.208064569715098, -26.503309736767974 14.007812326905697 M-25.57795370850187 14.848196188198125 C-25.8560136445221 14.595669511367305, -26.13407358054233 14.343142834536483, -26.503309736767974 14.007812326905697 M-26.503309736767974 14.007812326905697 C-26.829953713614252 13.67052560284267, -27.156597690460533 13.333238878779644, -27.372920942968655 13.109867360095677 M-26.503309736767974 14.007812326905697 C-26.722303162305252 13.781683635343844, -26.941296587842533 13.555554943781992, -27.372920942968655 13.109867360095677 M-27.372920942968655 13.109867360095677 C-27.536499358049102 12.917718845866682, -27.700077773129554 12.725570331637687, -28.18321390812658 12.158051136245307 M-27.372920942968655 13.109867360095677 C-27.540622180482785 12.912875944040836, -27.70832341799692 12.715884527985997, -28.18321390812658 12.158051136245307 M-28.18321390812658 12.158051136245307 C-28.37432729741195 11.901976605390848, -28.565440686697322 11.645902074536387, -28.930858964640635 11.156274872382316 M-28.18321390812658 12.158051136245307 C-28.43982278869958 11.814218613827425, -28.696431669272584 11.470386091409544, -28.930858964640635 11.156274872382316 M-28.930858964640635 11.156274872382316 C-29.14174300516531 10.832300355842541, -29.35262704568999 10.508325839302769, -29.612783878604244 10.108655082055249 M-28.930858964640635 11.156274872382316 C-29.07294602349637 10.937990994262297, -29.215033082352107 10.71970711614228, -29.612783878604244 10.108655082055249 M-29.612783878604244 10.108655082055249 C-29.758096393947607 9.850637996575342, -29.903408909290974 9.592620911095436, -30.2261864742735 9.019496659696289 M-29.612783878604244 10.108655082055249 C-29.78505575374518 9.80276892332355, -29.957327628886116 9.49688276459185, -30.2261864742735 9.019496659696289 M-30.2261864742735 9.019496659696289 C-30.354803614408617 8.752420416239778, -30.483420754543733 8.485344172783266, -30.76854614880834 7.893275190886686 M-30.2261864742735 9.019496659696289 C-30.394751954567102 8.669466833143137, -30.5633174348607 8.319437006589984, -30.76854614880834 7.893275190886686 M-30.76854614880834 7.893275190886686 C-30.94686817358345 7.452816342070355, -31.125190198358563 7.012357493254022, -31.237634229970325 6.73461856121551 M-30.76854614880834 7.893275190886686 C-30.876699771522215 7.626133651775372, -30.98485339423609 7.358992112664057, -31.237634229970325 6.73461856121551 M-31.237634229970325 6.73461856121551 C-31.321120552324313 6.483171060024349, -31.404606874678304 6.231723558833187, -31.63152313421488 5.5482879393051325 M-31.237634229970325 6.73461856121551 C-31.322223084307403 6.479850409355904, -31.40681193864448 6.225082257496297, -31.63152313421488 5.5482879393051325 M-31.63152313421488 5.5482879393051325 C-31.73943166730332 5.136785934784821, -31.847340200391766 4.725283930264508, -31.948594287545557 4.339158212148136 M-31.63152313421488 5.5482879393051325 C-31.69895696444004 5.2911335186496995, -31.766390794665202 5.0339790979942665, -31.948594287545557 4.339158212148136 M-31.948594287545557 4.339158212148136 C-32.0179558570711 3.983001212207393, -32.08731742659664 3.62684421226665, -32.187544776581774 3.112197953150904 M-31.948594287545557 4.339158212148136 C-32.00131267988623 4.068460409514948, -32.054031072226906 3.7977626068817614, -32.187544776581774 3.112197953150904 M-32.187544776581774 3.112197953150904 C-32.231242767095715 2.773284967869036, -32.274940757609656 2.4343719825871677, -32.34739270250937 1.872449005199809 M-32.187544776581774 3.112197953150904 C-32.2355556013556 2.739835477014843, -32.28356642612942 2.367473000878782, -32.34739270250937 1.872449005199809 M-32.34739270250937 1.872449005199809 C-32.37613185427921 1.4248135185587318, -32.404871006049056 0.9771780319176544, -32.42748121591342 0.6250057626472781 M-32.34739270250937 1.872449005199809 C-32.37596640275936 1.4273905595304557, -32.40454010300935 0.9823321138611025, -32.42748121591342 0.6250057626472781 M-32.42748121591342 0.6250057626472781 C-32.42748121591342 0.13399791562993335, -32.42748121591342 -0.35700993138741144, -32.42748121591342 -0.6250057626472687 M-32.42748121591342 0.6250057626472781 C-32.42748121591342 0.22868752254473484, -32.42748121591342 -0.16763071755780845, -32.42748121591342 -0.6250057626472687 M-32.42748121591342 -0.6250057626472687 C-32.41053405483044 -0.888971476016855, -32.39358689374746 -1.1529371893864413, -32.34739270250937 -1.8724490051997822 M-32.42748121591342 -0.6250057626472687 C-32.40269081367242 -1.0111362880032888, -32.377900411431426 -1.397266813359309, -32.34739270250937 -1.8724490051997822 M-32.34739270250937 -1.8724490051997822 C-32.29172675844516 -2.3041830748778143, -32.23606081438094 -2.735917144555846, -32.187544776581774 -3.112197953150895 M-32.34739270250937 -1.8724490051997822 C-32.299426299769145 -2.2444669528153316, -32.25145989702893 -2.616484900430881, -32.187544776581774 -3.112197953150895 M-32.187544776581774 -3.112197953150895 C-32.09303947460848 -3.597462705081121, -31.998534172635186 -4.082727457011347, -31.94859428754556 -4.339158212148126 M-32.187544776581774 -3.112197953150895 C-32.11763811161151 -3.4711539029943097, -32.04773144664126 -3.830109852837724, -31.94859428754556 -4.339158212148126 M-31.94859428754556 -4.339158212148126 C-31.848990874524002 -4.7189891943915985, -31.749387461502447 -5.098820176635071, -31.631523134214884 -5.548287939305123 M-31.94859428754556 -4.339158212148126 C-31.8666946185855 -4.651477145433909, -31.784794949625432 -4.963796078719692, -31.631523134214884 -5.548287939305123 M-31.631523134214884 -5.548287939305123 C-31.499709301032937 -5.945290203166919, -31.36789546785099 -6.342292467028715, -31.237634229970332 -6.734618561215485 M-31.631523134214884 -5.548287939305123 C-31.52502799384612 -5.869034334399488, -31.418532853477352 -6.189780729493853, -31.237634229970332 -6.734618561215485 M-31.237634229970332 -6.734618561215485 C-31.124107550870253 -7.015031653481701, -31.010580871770177 -7.295444745747918, -30.768546148808344 -7.893275190886676 M-31.237634229970332 -6.734618561215485 C-31.08733339186529 -7.105864537203964, -30.937032553760243 -7.477110513192444, -30.768546148808344 -7.893275190886676 M-30.768546148808344 -7.893275190886676 C-30.59454129862309 -8.254599985403722, -30.420536448437833 -8.61592477992077, -30.226186474273504 -9.019496659696282 M-30.768546148808344 -7.893275190886676 C-30.576991534561973 -8.291042445981425, -30.385436920315602 -8.688809701076176, -30.226186474273504 -9.019496659696282 M-30.226186474273504 -9.019496659696282 C-30.064629627888326 -9.306357199857814, -29.90307278150315 -9.593217740019345, -29.612783878604247 -10.108655082055243 M-30.226186474273504 -9.019496659696282 C-30.046902002403584 -9.33783439402271, -29.867617530533664 -9.65617212834914, -29.612783878604247 -10.108655082055243 M-29.612783878604247 -10.108655082055243 C-29.34024383990552 -10.527349768744061, -29.067703801206793 -10.94604445543288, -28.93085896464064 -11.156274872382308 M-29.612783878604247 -10.108655082055243 C-29.424537483553046 -10.3978520960888, -29.236291088501847 -10.687049110122356, -28.93085896464064 -11.156274872382308 M-28.93085896464064 -11.156274872382308 C-28.692359406567636 -11.475842552443412, -28.45385984849463 -11.795410232504517, -28.183213908126586 -12.158051136245302 M-28.93085896464064 -11.156274872382308 C-28.678631465966657 -11.494236742207608, -28.42640396729267 -11.83219861203291, -28.183213908126586 -12.158051136245302 M-28.183213908126586 -12.158051136245302 C-27.861985787242237 -12.535383965433942, -27.540757666357887 -12.912716794622582, -27.372920942968662 -13.10986736009567 M-28.183213908126586 -12.158051136245302 C-28.0172631305039 -12.35298636250766, -27.851312352881212 -12.547921588770022, -27.372920942968662 -13.10986736009567 M-27.372920942968662 -13.10986736009567 C-27.18411635422738 -13.304823599116059, -26.9953117654861 -13.499779838136448, -26.503309736767996 -14.007812326905677 M-27.372920942968662 -13.10986736009567 C-27.078661018997913 -13.413714890784526, -26.784401095027164 -13.71756242147338, -26.503309736767996 -14.007812326905677 M-26.503309736767996 -14.007812326905677 C-26.189942328674963 -14.292404315688497, -25.87657492058193 -14.576996304471317, -25.577953708501887 -14.848196188198107 M-26.503309736767996 -14.007812326905677 C-26.19209814406394 -14.290446461191978, -25.880886551359882 -14.57308059547828, -25.577953708501887 -14.848196188198107 M-25.577953708501887 -14.848196188198107 C-25.30697790621365 -15.064292179554037, -25.036002103925412 -15.28038817090997, -24.60065534457872 -15.627565626425149 M-25.577953708501887 -14.848196188198107 C-25.26620584018682 -15.09680681722019, -24.954457971871758 -15.345417446242271, -24.60065534457872 -15.627565626425149 M-24.60065534457872 -15.627565626425149 C-24.303600047222922 -15.834778542543987, -24.006544749867125 -16.041991458662824, -23.57543057360571 -16.342718045390885 M-24.60065534457872 -15.627565626425149 C-24.259376597005424 -15.865626907013409, -23.918097849432126 -16.10368818760167, -23.57543057360571 -16.342718045390885 M-23.57543057360571 -16.342718045390885 C-23.17590730538412 -16.584911398446145, -22.776384037162526 -16.82710475150141, -22.50649226407679 -16.99071473040609 M-23.57543057360571 -16.342718045390885 C-23.229625869071736 -16.552346889453393, -22.883821164537757 -16.7619757335159, -22.50649226407679 -16.99071473040609 M-22.50649226407679 -16.99071473040609 C-22.135300396447196 -17.184365289988712, -21.7641085288176 -17.378015849571334, -21.398232912792388 -17.56889292409717 M-22.50649226407679 -16.99071473040609 C-22.1547357341631 -17.174225886751252, -21.80297920424941 -17.357737043096414, -21.398232912792388 -17.56889292409717 M-21.398232912792388 -17.56889292409717 C-21.165758126148457 -17.671802616024912, -20.933283339504523 -17.774712307952655, -20.255206595147804 -18.07487676824742 M-21.398232912792388 -17.56889292409717 C-21.135800249961626 -17.685064079144, -20.873367587130865 -17.80123523419083, -20.255206595147804 -18.07487676824742 M-20.255206595147804 -18.07487676824742 C-19.9184580111265 -18.198803360037047, -19.5817094271052 -18.322729951826673, -19.08211025146062 -18.506587066708033 M-20.255206595147804 -18.07487676824742 C-19.94297647498337 -18.189780338691524, -19.63074635481894 -18.304683909135626, -19.08211025146062 -18.506587066708033 M-19.08211025146062 -18.506587066708033 C-18.640842434361094 -18.637553038561133, -18.19957461726157 -18.768519010414234, -17.883764386235413 -18.862249829261067 M-19.08211025146062 -18.506587066708033 C-18.645467300292765 -18.63618040262903, -18.20882434912491 -18.765773738550028, -17.883764386235413 -18.862249829261067 M-17.883764386235413 -18.862249829261067 C-17.556564598173996 -18.936931045707926, -17.22936481011258 -19.011612262154785, -16.665093259676766 -19.140403561325773 M-17.883764386235413 -18.862249829261067 C-17.60685689731768 -18.925452156616302, -17.329949408399948 -18.988654483971537, -16.665093259676766 -19.140403561325773 M-16.665093259676766 -19.140403561325773 C-16.364411064084496 -19.18901552688388, -16.06372886849223 -19.237627492441984, -15.43110465284788 -19.3399052695533 M-16.665093259676766 -19.140403561325773 C-16.383068488076276 -19.185999139263373, -16.101043716475786 -19.23159471720097, -15.43110465284788 -19.3399052695533 M-15.43110465284788 -19.3399052695533 C-14.99998242744635 -19.38149511213745, -14.568860202044819 -19.4230849547216, -14.186869289623903 -19.45993515863156 M-15.43110465284788 -19.3399052695533 C-15.03606307063344 -19.378014455882514, -14.641021488419 -19.416123642211726, -14.186869289623903 -19.45993515863156 M-14.186869289623903 -19.45993515863156 C-13.856296980902558 -19.470535969152287, -13.52572467218121 -19.481136779673015, -12.937500000000005 -19.5 M-14.186869289623903 -19.45993515863156 C-13.838253429332143 -19.47111459073151, -13.489637569040381 -19.482294022831457, -12.937500000000005 -19.5 M-12.937500000000005 -19.5 C-12.937500000000004 -19.5, -12.937500000000002 -19.5, -12.9375 -19.5 M-12.937500000000005 -19.5 C-12.937500000000004 -19.5, -12.937500000000002 -19.5, -12.9375 -19.5" stroke="#22d3ee" stroke-width="1.5" fill="none" stroke-dasharray="0 0" style="fill:#164e63 !important;stroke:#22d3ee !important;stroke-width:1.5px !important"></path></g><g class="label" style="color:#cffafe !important" transform="translate(-20.0625, -12)"><rect></rect><foreignObject width="40.125" height="24"><div style="color: rgb(207, 250, 254) !important; display: table-cell; white-space: nowrap; line-height: 1.5; max-width: 200px; text-align: center;" xmlns="http://www.w3.org/1999/xhtml"><span style="color:#cffafe !important" class="nodeLabel"><p>Users</p></span></div></foreignObject></g></g><g class="node default edge" id="container-flowchart-dns-1" data-look="classic" transform="translate(238.625, 124)"><rect class="basic label-container" style="fill:#134e4a !important;stroke:#2dd4bf !important;stroke-width:1.5px !important" x="-83.6875" y="-27" width="167.375" height="54"></rect><g class="label" style="color:#ccfbf1 !important" transform="translate(-53.6875, -12)"><rect></rect><foreignObject width="107.375" height="24"><div style="color: rgb(204, 251, 241) !important; display: table-cell; white-space: nowrap; line-height: 1.5; max-width: 200px; text-align: center;" xmlns="http://www.w3.org/1999/xhtml"><span style="color:#ccfbf1 !important" class="nodeLabel"><p>DNS - Route 53</p></span></div></foreignObject></g></g><g class="node default edge" id="container-flowchart-cdn-3" data-look="classic" transform="translate(105.21875, 228)"><rect class="basic label-container" style="fill:#134e4a !important;stroke:#2dd4bf !important;stroke-width:1.5px !important" x="-97.21875" y="-27" width="194.4375" height="54"></rect><g class="label" style="color:#ccfbf1 !important" transform="translate(-67.21875, -12)"><rect></rect><foreignObject width="134.4375" height="24"><div style="color: rgb(204, 251, 241) !important; display: table-cell; white-space: nowrap; line-height: 1.5; max-width: 200px; text-align: center;" xmlns="http://www.w3.org/1999/xhtml"><span style="color:#ccfbf1 !important" class="nodeLabel"><p>CDN - static assets</p></span></div></foreignObject></g></g><g class="node default edge" id="container-flowchart-lb-5" data-look="classic" transform="translate(372.03125, 228)"><rect class="basic label-container" style="fill:#134e4a !important;stroke:#2dd4bf !important;stroke-width:1.5px !important" x="-119.59375" y="-27" width="239.1875" height="54"></rect><g class="label" style="color:#ccfbf1 !important" transform="translate(-89.59375, -12)"><rect></rect><foreignObject width="179.1875" height="24"><div style="color: rgb(204, 251, 241) !important; display: table-cell; white-space: nowrap; line-height: 1.5; max-width: 200px; text-align: center;" xmlns="http://www.w3.org/1999/xhtml"><span style="color:#ccfbf1 !important" class="nodeLabel"><p>Load Balancer - multi-AZ</p></span></div></foreignObject></g></g><g class="node default app" id="container-flowchart-app1-6" data-look="classic" transform="translate(548.0859375, 357)"><rect class="basic label-container" style="fill:#065f46 !important;stroke:#34d399 !important;stroke-width:1.5px !important" x="-80.5234375" y="-27" width="161.046875" height="54"></rect><g class="label" style="color:#d1fae5 !important" transform="translate(-50.5234375, -12)"><rect></rect><foreignObject width="101.046875" height="24"><div style="color: rgb(209, 250, 229) !important; display: table-cell; white-space: nowrap; line-height: 1.5; max-width: 200px; text-align: center;" xmlns="http://www.w3.org/1999/xhtml"><span style="color:#d1fae5 !important" class="nodeLabel"><p>App instances</p></span></div></foreignObject></g></g><g class="node default app" id="container-flowchart-app2-7" data-look="classic" transform="translate(226.5078125, 357)"><rect class="basic label-container" style="fill:#065f46 !important;stroke:#34d399 !important;stroke-width:1.5px !important" x="-80.5234375" y="-27" width="161.046875" height="54"></rect><g class="label" style="color:#d1fae5 !important" transform="translate(-50.5234375, -12)"><rect></rect><foreignObject width="101.046875" height="24"><div style="color: rgb(209, 250, 229) !important; display: table-cell; white-space: nowrap; line-height: 1.5; max-width: 200px; text-align: center;" xmlns="http://www.w3.org/1999/xhtml"><span style="color:#d1fae5 !important" class="nodeLabel"><p>App instances</p></span></div></foreignObject></g></g><g class="node default data" id="container-flowchart-cache-13" data-look="classic" transform="translate(263.0546875, 501.3106803894043)"><path d="M0,15.207119424178622 a97.0546875,15.207119424178622 0,0,0 194.109375,0 a97.0546875,15.207119424178622 0,0,0 -194.109375,0 l0,54.20711942417862 a97.0546875,15.207119424178622 0,0,0 194.109375,0 l0,-54.20711942417862" class="basic label-container outer-path" style="fill:#78350f !important;stroke:#fbbf24 !important;stroke-width:1.5px !important" transform="translate(-97.0546875, -42.310679136267936)"></path><g class="label" style="color:#fef3c7 !important" transform="translate(-89.5546875, -2)"><rect></rect><foreignObject width="179.109375" height="24"><div style="color: rgb(254, 243, 199) !important; display: table-cell; white-space: nowrap; line-height: 1.5; max-width: 200px; text-align: center;" xmlns="http://www.w3.org/1999/xhtml"><span style="color:#fef3c7 !important" class="nodeLabel"><p>Cache - Redis, replicated</p></span></div></foreignObject></g></g><g class="node default data" id="container-flowchart-dbp-17" data-look="classic" transform="translate(481.0078125, 501.3106803894043)"><path d="M0,13.28696925329429 a70.8984375,13.28696925329429 0,0,0 141.796875,0 a70.8984375,13.28696925329429 0,0,0 -141.796875,0 l0,52.28696925329429 a70.8984375,13.28696925329429 0,0,0 141.796875,0 l0,-52.28696925329429" class="basic label-container outer-path" style="fill:#78350f !important;stroke:#fbbf24 !important;stroke-width:1.5px !important" transform="translate(-70.8984375, -39.43045387994143)"></path><g class="label" style="color:#fef3c7 !important" transform="translate(-63.3984375, -2)"><rect></rect><foreignObject width="126.796875" height="24"><div style="color: rgb(254, 243, 199) !important; display: table-cell; white-space: nowrap; line-height: 1.5; max-width: 200px; text-align: center;" xmlns="http://www.w3.org/1999/xhtml"><span style="color:#fef3c7 !important" class="nodeLabel"><p>DB primary - AZ A</p></span></div></foreignObject></g></g><g class="node default data" id="container-flowchart-dbs-21" data-look="classic" transform="translate(392.0234375, 633.182544708252)"><path d="M0,13.374120792884963 a71.8984375,13.374120792884963 0,0,0 143.796875,0 a71.8984375,13.374120792884963 0,0,0 -143.796875,0 l0,52.374120792884966 a71.8984375,13.374120792884963 0,0,0 143.796875,0 l0,-52.374120792884966" class="basic label-container outer-path" style="fill:#78350f !important;stroke:#fbbf24 !important;stroke-width:1.5px !important" transform="translate(-71.8984375, -39.56118118932744)"></path><g class="label" style="color:#fef3c7 !important" transform="translate(-64.3984375, -2)"><rect></rect><foreignObject width="128.796875" height="24"><div style="color: rgb(254, 243, 199) !important; display: table-cell; white-space: nowrap; line-height: 1.5; max-width: 200px; text-align: center;" xmlns="http://www.w3.org/1999/xhtml"><span style="color:#fef3c7 !important" class="nodeLabel"><p>DB standby - AZ B</p></span></div></foreignObject></g></g><g class="node default data" id="container-flowchart-dbr-23" data-look="classic" transform="translate(569.9921875, 633.182544708252)"><path d="M0,11.82216511827107 a56.0703125,11.82216511827107 0,0,0 112.140625,0 a56.0703125,11.82216511827107 0,0,0 -112.140625,0 l0,50.82216511827107 a56.0703125,11.82216511827107 0,0,0 112.140625,0 l0,-50.82216511827107" class="basic label-container outer-path" style="fill:#78350f !important;stroke:#fbbf24 !important;stroke-width:1.5px !important" transform="translate(-56.0703125, -37.23324767740661)"></path><g class="label" style="color:#fef3c7 !important" transform="translate(-48.5703125, -2)"><rect></rect><foreignObject width="97.140625" height="24"><div style="color: rgb(254, 243, 199) !important; display: table-cell; white-space: nowrap; line-height: 1.5; max-width: 200px; text-align: center;" xmlns="http://www.w3.org/1999/xhtml"><span style="color:#fef3c7 !important" class="nodeLabel"><p>Read replicas</p></span></div></foreignObject></g></g><g class="node default data" id="container-flowchart-obj-25" data-look="classic" transform="translate(704.140625, 501.3106803894043)"><path d="M0,13.692899140660336 a75.6875,13.692899140660336 0,0,0 151.375,0 a75.6875,13.692899140660336 0,0,0 -151.375,0 l0,52.69289914066034 a75.6875,13.692899140660336 0,0,0 151.375,0 l0,-52.69289914066034" class="basic label-container outer-path" style="fill:#78350f !important;stroke:#fbbf24 !important;stroke-width:1.5px !important" transform="translate(-75.6875, -40.0393487109905)"></path><g class="label" style="color:#fef3c7 !important" transform="translate(-68.1875, -2)"><rect></rect><foreignObject width="136.375" height="24"><div style="color: rgb(254, 243, 199) !important; display: table-cell; white-space: nowrap; line-height: 1.5; max-width: 200px; text-align: center;" xmlns="http://www.w3.org/1999/xhtml"><span style="color:#fef3c7 !important" class="nodeLabel"><p>Object storage - S3</p></span></div></foreignObject></g></g></g></g></g><defs><filter id="container-drop-shadow" height="130%" width="130%"><feDropShadow dx="4" dy="4" stdDeviation="0" flood-opacity="0.06" flood-color="#000000"></feDropShadow></filter></defs><defs><filter id="container-drop-shadow-small" height="150%" width="150%"><feDropShadow dx="2" dy="2" stdDeviation="0" flood-opacity="0.06" flood-color="#000000"></feDropShadow></filter></defs><linearGradient id="container-gradient" gradientUnits="objectBoundingBox" x1="0%" y1="0%" x2="100%" y2="0%"><stop offset="0%" stop-color="hsl(40.5882352941, 60%, 83.3333333333%)" stop-opacity="1"></stop><stop offset="100%" stop-color="hsl(-79.4117647059, 60%, 83.3333333333%)" stop-opacity="1"></stop></linearGradient></svg>